<?xml version="1.0" standalone="no"?><!DOCTYPE svg PUBLIC "-//W3C//DTD SVG 1.1//EN" "http://www.w3.org/Graphics/SVG/1.1/DTD/svg11.dtd"><svg t="1757218470170" class="icon" viewBox="0 0 1024 1024" version="1.1" xmlns="http://www.w3.org/2000/svg" p-id="16677" xmlns:xlink="http://www.w3.org/1999/xlink" width="200" height="200"><path d="M414.926 435.324c0-79.652-145.711-320.539-145.711-320.539S123.504 355.672 123.504 435.324c0 79.676 65.238 144.25 145.711 144.25S414.926 515 414.926 435.324z m78.281-152.39c38.211 0 69.188-30.66 69.188-68.492 0-37.82-69.188-152.199-69.188-152.199s-69.184 114.379-69.184 152.199c0 37.831 30.977 68.492 69.184 68.492z m300.172 432.933V422.684c0-47.195-38.305-85.598-85.402-85.598-47.07 0-85.379 38.402-85.379 85.598v293.172c-32.531 26.023-51.742 65.664-51.742 107.426 0 75.801 61.512 137.473 137.121 137.473 75.621 0 137.133-61.672 137.133-137.473-0.001-41.755-19.219-81.403-51.731-107.415zM707.977 933.93c-60.855 0-110.367-49.641-110.367-110.648 0-58.465 51.742-93.879 51.742-93.879V422.684c0-32.41 26.301-58.773 58.625-58.773 32.332 0 58.645 26.363 58.645 58.773V729.41s51.734 23.539 51.734 93.871c-0.001 61.008-49.524 110.649-110.379 110.649z m184.828-241.422h-73.926c-3.695 0-6.691 3-6.691 6.711a6.688 6.688 0 0 0 6.691 6.699h73.926a6.69 6.69 0 0 0 6.691-6.699c0-3.707-2.992-6.711-6.691-6.711z m-74.203-24.43h45.535a6.69 6.69 0 0 0 6.691-6.699c0-3.703-2.996-6.707-6.691-6.707h-45.535c-3.699 0-6.695 3.004-6.695 6.707a6.69 6.69 0 0 0 6.695 6.699z m0-37.828h45.535c3.695 0 6.691-3.004 6.691-6.711s-2.996-6.699-6.691-6.699h-45.535c-3.699 0-6.695 2.992-6.695 6.699s2.995 6.711 6.695 6.711z m0-37.832h45.535c3.695 0 6.691-3.004 6.691-6.711 0-3.703-2.996-6.707-6.691-6.707h-45.535c-3.699 0-6.695 3.004-6.695 6.707-0.001 3.711 2.995 6.711 6.695 6.711z m0-37.84h45.535c3.695 0 6.691-3.004 6.691-6.707 0-3.707-2.996-6.715-6.691-6.715h-45.535c-3.699 0-6.695 3.008-6.695 6.715-0.001 3.703 2.995 6.707 6.695 6.707zM753.238 737.57V454.602h-90.504v282.965s-51.75 25.324-51.75 87c0 53.613 43.516 97.23 96.992 97.23 53.488 0 97-43.617 97-97.23 0.001-66.805-51.738-86.997-51.738-86.997z m-82.914-624.968L341.137 893.859l25.977 11 329.188-781.258-25.978-10.999z" fill="#FC0893" p-id="16678"></path></svg>