<?xml version="1.0" standalone="no"?><!DOCTYPE svg PUBLIC "-//W3C//DTD SVG 1.1//EN" "http://www.w3.org/Graphics/SVG/1.1/DTD/svg11.dtd"><svg t="1757945725085" class="icon" viewBox="0 0 1821 1024" version="1.1" xmlns="http://www.w3.org/2000/svg" p-id="5640" xmlns:xlink="http://www.w3.org/1999/xlink" width="355.6640625" height="200"><path d="M916.4 1012.4c-275.733333 0-500-224.266667-500-500s224.266667-500 500-500 500 224.266667 500 500-224.266667 500-500 500z m0-940c-242.666667 0-440 197.333333-440 440s197.333333 440 440 440 440-197.333333 440-440-197.333333-440-440-440z" fill="#22A7D8" p-id="5641"></path><path d="M1164.133333 673.466667L968.4 481.333333 1106.666667 333.2c10.533333 1.466667 22.533333-2.8 31.6-12.533333l15.466666-16.533334c13.333333-14.266667 6.533333-25.733333-5.066666-36.4-11.466667-10.8-23.333333-16.8-36.666667-2.4l-15.466667 16.533334c-9.066667 9.6-12.4 22-10.266666 32.4L948.533333 461.733333l-22.933333-22.533333c-6.666667-6.533333-14.266667-12.266667-22.133333-16.666667 9.466667-30 1.466667-63.333333-21.333334-85.866666l-74.8-73.333334c-15.866667-15.6-36.933333-24.266667-59.2-24.266666-11.866667 0-23.333333 2.4-34.133333 7.2-4.133333 1.733333-6.666667 5.866667-6.666667 10.266666s2.8 8.4 6.933334 10.133334c4.4 1.866667 8.533333 4.4 11.866666 7.866666l52.266667 51.333334c14.533333 14.266667 14.666667 37.6 0.4 52.133333-6.933333 7.066667-16.4 11.066667-26.266667 11.066667-9.733333 0-18.933333-3.733333-25.866666-10.533334l-52.266667-51.333333c-3.466667-3.333333-6.133333-7.333333-8-11.733333-1.733333-4-5.733333-6.666667-10.133333-6.666667s-8.4 2.666667-10.133334 6.8c-13.333333 32.133333-6 68.666667 18.8 92.933333l74.8 73.466667c15.866667 15.6 36.933333 24.133333 59.2 24.133333 9.2 0 18.266667-1.466667 26.933334-4.4 3.466667 5.866667 7.466667 11.333333 12.133333 16.533334L696.266667 669.866667c-27.733333 29.733333-31.866667 71.066667-9.2 92.133333l0.533333 0.533333c22.666667 21.066667 63.6 14.133333 91.333333-15.6l139.333334-149.466666L1081.333333 757.6c18.133333 17.866667 40.8 28.133333 62 28.133333 14.666667 0 27.2-4.933333 36.266667-14.266666 23.2-23.466667 16.4-66.533333-15.466667-98zM830.933333 476.533333c-1.6 0-3.333333 0.4-4.8 1.066667-8.4 4.133333-17.866667 6.266667-27.333333 6.266667-16.4 0-32-6.4-43.733333-17.866667l-74.8-73.466667c-12.933333-12.666667-19.466667-29.866667-18.666667-47.2l49.733333 48.8c11.066667 10.933333 25.733333 16.933333 41.333334 16.933334 16 0 30.933333-6.266667 42.133333-17.6 22.8-23.2 22.4-60.666667-0.8-83.466667L744.4 261.333333c17.466667-0.933333 34.8 5.333333 47.466667 17.733334l74.666666 73.466666c18.8 18.4 24 46.933333 12.933334 70.8-1.2 2.666667-1.333333 5.866667-0.266667 8.666667 1.066667 2.8 3.2 5.066667 6 6.133333 8.8 3.733333 17.466667 9.6 24.933333 16.933334l23.333334 22.933333-9.2 9.866667c-20.4-9.466667-48.266667-3.866667-70.666667 14.666666-5.2-6-9.466667-12.666667-12.533333-19.466666-1.2-2.666667-3.466667-4.8-6.266667-5.866667-1.333333-0.533333-2.666667-0.666667-3.866667-0.666667z m-68.133333 255.333334c-19.066667 20.4-46.533333 27.066667-60 14.533333l-0.533333-0.533333c-13.466667-12.533333-8.8-40.533333 10.266666-60.933334l148.133334-158.8c19.066667-20.4 46.533333-27.066667 60-14.533333l0.533333 0.533333c13.466667 12.533333 8.8 40.533333-10.266667 60.933334L762.8 731.866667zM1163.866667 756c-6.133333 6.266667-14.533333 7.6-20.533334 7.6-15.2 0-32.666667-8.133333-46.533333-21.733333L933.066667 580.933333c18.533333-24.133333 22.933333-53.733333 11.6-74.133333l8.666666-9.333333L1148.533333 689.333333c22.4 21.866667 29.466667 52.4 15.333334 66.666667z" fill="#22A7D8" p-id="5642"></path></svg>