<?xml version="1.0" encoding="utf-8"?>
<!-- Generator: Adobe Illustrator 16.0.0, SVG Export Plug-In . SVG Version: 6.00 Build 0)  -->
<!DOCTYPE svg PUBLIC "-//W3C//DTD SVG 1.1//EN" "http://www.w3.org/Graphics/SVG/1.1/DTD/svg11.dtd">
<svg version="1.1" id="图层_1" xmlns="http://www.w3.org/2000/svg" xmlns:xlink="http://www.w3.org/1999/xlink" x="0px" y="0px"
	 width="283.464px" height="283.465px" viewBox="0 0 283.464 283.465" enable-background="new 0 0 283.464 283.465"
	 xml:space="preserve">
<g>
	
		<linearGradient id="SVGID_1_" gradientUnits="userSpaceOnUse" x1="240.9058" y1="951.8389" x2="346.8511" y2="951.8389" gradientTransform="matrix(1 0 0 -1 -240.9053 995.6445)">
		<stop  offset="0" style="stop-color:#1183F0"/>
		<stop  offset="0.4303" style="stop-color:#006CD6"/>
		<stop  offset="0.7818" style="stop-color:#005EBB"/>
		<stop  offset="0.897" style="stop-color:#0065CD"/>
		<stop  offset="1" style="stop-color:#0373CD"/>
	</linearGradient>
	<polygon fill="url(#SVGID_1_)" points="84.462,26.324 0,26.324 21.481,61.287 105.946,61.287 	"/>
	
		<linearGradient id="SVGID_2_" gradientUnits="userSpaceOnUse" x1="345.1245" y1="714.002" x2="530.7597" y2="1005.7943" gradientTransform="matrix(1 0 0 -1 -240.9053 995.6445)">
		<stop  offset="0" style="stop-color:#1183F0"/>
		<stop  offset="0.4303" style="stop-color:#006CD6"/>
		<stop  offset="0.7818" style="stop-color:#005EBB"/>
		<stop  offset="0.897" style="stop-color:#0065CD"/>
		<stop  offset="1" style="stop-color:#0373CD"/>
	</linearGradient>
	<polygon fill="url(#SVGID_2_)" points="222.465,61.287 206.972,86.5 182.913,125.661 164.203,156.172 140.71,194.429 
		121.972,224.934 141.751,257.141 160.491,226.638 183.984,188.373 202.685,157.867 226.749,118.699 262.017,61.287 	"/>
	
		<linearGradient id="SVGID_3_" gradientUnits="userSpaceOnUse" x1="325.3677" y1="923.0957" x2="400.854" y2="923.0957" gradientTransform="matrix(1 0 0 -1 -240.9053 995.6445)">
		<stop  offset="0" style="stop-color:#1183F0"/>
		<stop  offset="0.4303" style="stop-color:#006CD6"/>
		<stop  offset="0.7818" style="stop-color:#005EBB"/>
		<stop  offset="0.897" style="stop-color:#0065CD"/>
		<stop  offset="1" style="stop-color:#0373CD"/>
	</linearGradient>
	<polygon fill="url(#SVGID_3_)" points="143.39,61.287 121.905,26.324 84.462,26.324 105.946,61.287 141.246,118.772 
		159.949,88.267 	"/>
	
		<linearGradient id="SVGID_4_" gradientUnits="userSpaceOnUse" x1="204.2251" y1="807.6143" x2="367.7653" y2="875.3817" gradientTransform="matrix(1 0 0 -1 -240.9053 995.6445)">
		<stop  offset="0" style="stop-color:#1183F0"/>
		<stop  offset="0.4303" style="stop-color:#006CD6"/>
		<stop  offset="0.7818" style="stop-color:#005EBB"/>
		<stop  offset="0.897" style="stop-color:#0065CD"/>
		<stop  offset="1" style="stop-color:#0373CD"/>
	</linearGradient>
	<polygon fill="url(#SVGID_4_)" points="117.76,157.034 58.963,61.287 21.481,61.287 99.019,187.542 121.972,224.934 
		140.71,194.429 	"/>
	
		<linearGradient id="SVGID_5_" gradientUnits="userSpaceOnUse" x1="410.9341" y1="951.8389" x2="524.3696" y2="951.8389" gradientTransform="matrix(1 0 0 -1 -240.9053 995.6445)">
		<stop  offset="0" style="stop-color:#1183F0"/>
		<stop  offset="0.4303" style="stop-color:#006CD6"/>
		<stop  offset="0.7818" style="stop-color:#005EBB"/>
		<stop  offset="0.897" style="stop-color:#0065CD"/>
		<stop  offset="1" style="stop-color:#0373CD"/>
	</linearGradient>
	<polygon fill="url(#SVGID_5_)" points="198,26.324 170.029,26.324 184.015,49.099 191.476,61.287 262.017,61.287 283.464,26.324 	
		"/>
</g>
</svg>
