<?xml version="1.0" encoding="UTF-8" standalone="no"?>
<svg
   width="500"
   height="500"
   viewBox="0 0 500 499.99999"
   version="1.1"
   id="svg10"
   sodipodi:docname="yy-logo-1.svg"
   inkscape:export-filename="yy-logo-1.svg"
   inkscape:export-xdpi="96"
   inkscape:export-ydpi="96"
   inkscape:version="1.4 (e7c3feb1, 2024-10-09)"
   xmlns:inkscape="http://www.inkscape.org/namespaces/inkscape"
   xmlns:sodipodi="http://sodipodi.sourceforge.net/DTD/sodipodi-0.dtd"
   xmlns="http://www.w3.org/2000/svg"
   xmlns:svg="http://www.w3.org/2000/svg">
  <sodipodi:namedview
     id="namedview1"
     pagecolor="#ffffff"
     bordercolor="#000000"
     borderopacity="0.25"
     inkscape:showpageshadow="2"
     inkscape:pageopacity="0.0"
     inkscape:pagecheckerboard="0"
     inkscape:deskcolor="#d1d1d1"
     inkscape:document-units="px"
     inkscape:zoom="0.52410009"
     inkscape:cx="202.25144"
     inkscape:cy="364.4342"
     inkscape:window-width="1512"
     inkscape:window-height="847"
     inkscape:window-x="0"
     inkscape:window-y="38"
     inkscape:window-maximized="1"
     inkscape:current-layer="svg10" />
  <defs
     id="defs10" />
  <path
     fill-rule="nonzero"
     fill="#f3951e"
     fill-opacity="1"
     d="m 352.45703,101.14063 c -6.85156,0 -12.40625,5.55469 -12.40625,12.40624 0,2.77345 0.94141,5.3086 2.48047,7.375 v 24.08595 l -92.85936,92.85935 -92.20313,-92.20702 v -24.08203 c 1.53906,-2.0664 2.48047,-4.60156 2.48047,-7.3789 0,-6.85156 -5.55469,-12.40625 -12.40625,-12.40625 -6.85156,0 -12.40626,5.55469 -12.40626,12.40625 0,2.77734 0.94141,5.3125 2.48047,7.3789 v 32.30859 L 239.98828,256.2578 v 122.43359 c -0.80468,1.13673 -1.41406,2.41016 -1.80468,3.77734 -0.4336,1.2461 -0.67578,2.58594 -0.67578,3.98047 0,6.85548 5.55468,12.41017 12.40625,12.41017 6.04296,0 11.0664,-4.32813 12.16796,-10.05469 0.24219,-0.96875 0.41016,-1.96484 0.41016,-3.00781 0,-2.77344 -0.94141,-5.30859 -2.48047,-7.37892 V 255.60155 L 362.38281,153.23046 v -32.30859 c 1.53907,-2.0664 2.48047,-4.60155 2.48047,-7.375 0,-6.85155 -5.55469,-12.40624 -12.40625,-12.40624"
     id="path9" />
  <path
     fill-rule="nonzero"
     fill="#f3951e"
     fill-opacity="1"
     d="M 381.63672,160.85743 279.09375,263.22852 V 412.18164 H 220.73047 V 263.88085 L 118.36328,161.50978 V 88.470712 h 58.35938 v 48.867178 l 72.94922,72.94921 73.60156,-73.60546 V 87.818362 h 58.36328 z m 0,-92.890628 h -58.36328 c -10.96094,0 -19.84766,8.88672 -19.84766,19.85156 V 128.45899 L 249.67189,182.2129 196.57423,129.11525 V 88.470712 c 0,-10.96094 -8.88672,-19.85157 -19.85156,-19.85157 h -58.35939 c -10.96484,0 -19.85156,8.89063 -19.85156,19.85157 v 73.039068 c 0,5.26561 2.08984,10.31641 5.8125,14.03906 l 96.55859,96.55468 v 140.07812 c 0,10.96094 8.88672,19.85156 19.84766,19.85156 h 58.36328 c 10.96484,0 19.85156,-8.89062 19.85156,-19.85156 V 271.38085 l 96.73047,-96.48827 c 3.72266,-3.72264 5.8125,-8.76953 5.8125,-14.03514 V 87.818362 c 0,-10.96484 -8.88672,-19.85156 -19.85156,-19.85156"
     id="path10" />
</svg>
