<?xml version="1.0" standalone="no"?><!DOCTYPE svg PUBLIC "-//W3C//DTD SVG 1.1//EN" "http://www.w3.org/Graphics/SVG/1.1/DTD/svg11.dtd"><svg t="1757218128583" class="icon" viewBox="0 0 1024 1024" version="1.1" xmlns="http://www.w3.org/2000/svg" p-id="6290" xmlns:xlink="http://www.w3.org/1999/xlink" width="200" height="200"><path d="M683.562667 208.896c98.026667 26.410667 104.106667 67.52 117.845333 107.690667C743.274667 376.832 370.133333 761.6 370.133333 761.6s232.554667 25.109333 501.056-21.397333l-0.064 1.621333A424.362667 424.362667 0 0 0 938.666667 512c0-235.648-191.018667-426.666667-426.666667-426.666667-120.192 0-228.586667 49.877333-306.133333 129.856 124.565333-20.544 367.786667-35.925333 477.696-6.293333z" fill="#EC0B43" p-id="6291"></path><path d="M314.112 795.413333c-42.282667-7.402667-89.856-45.461333-100.416-113.109333 30.656-26.432 426.538667-437.482667 426.538667-437.482667-149.504-9.045333-310.805333-9.92-474.389334 18.432A424.042667 424.042667 0 0 0 85.333333 512c0 235.648 191.018667 426.666667 426.666667 426.666667 131.690667 0 249.365333-59.733333 327.637333-153.493334-82.602667 11.2-343.488 41.898667-525.525333 10.24z" fill="#EC0B43" p-id="6292"></path></svg>